<?xml version="1.0" encoding="utf-8"?>
<!-- Generator: Adobe Illustrator 22.0.1, SVG Export Plug-In . SVG Version: 6.00 Build 0)  -->
<svg version="1.1" id="Layer_1" xmlns="http://www.w3.org/2000/svg" xmlns:xlink="http://www.w3.org/1999/xlink" x="0px" y="0px"
	 viewBox="0 0 520.3 657.4" style="enable-background:new 0 0 520.3 657.4;" xml:space="preserve">
<style type="text/css">
	.st0{fill:none;stroke:#0070C0;stroke-width:2;stroke-miterlimit:10;}
	.st1{fill:#0070C0;}
	.st2{fill:#3CA0F0;}
	.st3{fill:#FFFFFF;}
	.st4{font-family:segoe-ui_normal,Segoe UI,Segoe,Segoe WP,Helvetica Neue,Helvetica,sans-serif;font-weight:600;}
	.st5{font-size:11px;}
	.st6{fill:none;}
	.st7{fill:#3F3F3F;}
	.st8{font-family:segoe-ui_normal,Segoe UI,Segoe,Segoe WP,Helvetica Neue,Helvetica,sans-serif;font-weight:500;}
	.st9{font-size:10px;}
	.st10{fill:#F2F2F2;stroke:#7F7F7F;stroke-width:0.75;stroke-linecap:round;stroke-linejoin:round;}
	.st11{fill:#FFFFFF;stroke:#000000;stroke-width:0.5;stroke-linecap:round;stroke-linejoin:round;}
	.st12{fill:#DBEEF3;stroke:#7F7F7F;stroke-width:0.75;stroke-linecap:round;stroke-linejoin:round;}
	.st13{fill:#0078D7;}
	.st14{fill:#FFFFFF;stroke:#FFFFFF;stroke-width:1.55;stroke-miterlimit:3;}
	.st15{fill:#006FD4;}
	.st16{fill:#FFFFFF;stroke:#FFFFFF;stroke-width:1.5;stroke-miterlimit:3;}
	.st17{fill:#0089CF;}
	.st18{fill:#FCFDFE;}
	.st19{fill:#FDFCFD;}
	.st20{fill:#F5F4F8;}
	.st21{fill:#058BD0;}
	.st22{fill:#EAF2F8;}
	.st23{fill:#F5F7FA;}
	.st24{fill:#F3F5F9;}
</style>
<title>Artboard 1</title>
<line class="st0" x1="133.3" y1="108.4" x2="133.3" y2="136.7"/>
<polygon class="st1" points="129.8,134.4 133.3,147.1 136.7,134.4 "/>
<line class="st0" x1="232.3" y1="108.4" x2="232.3" y2="135.4"/>
<polygon class="st1" points="228.9,133.1 232.3,145.9 235.7,133.1 "/>
<line class="st0" x1="256.3" y1="194.8" x2="256.3" y2="214.6"/>
<polygon class="st1" points="252.8,212.3 256.3,225.1 259.7,212.3 "/>
<line class="st0" x1="304.8" y1="170.5" x2="377" y2="170.5"/>
<polygon class="st1" points="374.7,174 387.4,170.5 374.7,167.1 "/>
<line class="st0" x1="304.8" y1="247.7" x2="377" y2="247.7"/>
<polygon class="st1" points="374.7,251.1 387.4,247.7 374.7,244.3 "/>
<line class="st0" x1="304.8" y1="327.2" x2="377" y2="327.2"/>
<polygon class="st1" points="374.7,330.6 387.4,327.2 374.7,323.8 "/>
<line class="st0" x1="304.5" y1="402.3" x2="376.7" y2="402.3"/>
<polygon class="st1" points="374.3,405.7 387.1,402.3 374.3,398.9 "/>
<line class="st0" x1="304.8" y1="481" x2="377" y2="481"/>
<polygon class="st1" points="374.7,484.5 387.4,481 374.7,477.6 "/>
<line class="st0" x1="301.2" y1="560.7" x2="377" y2="560.7"/>
<polygon class="st1" points="374.7,564.2 387.4,560.7 374.7,557.3 "/>
<line class="st0" x1="301.2" y1="560.7" x2="379.4" y2="626.3"/>
<polygon class="st1" points="375.4,627.4 387.4,633 379.8,622.1 "/>
<line class="st0" x1="154.9" y1="189.3" x2="199.8" y2="223.4"/>
<polygon class="st1" points="195.8,224.7 208.1,229.8 200,219.3 "/>
<line class="st0" x1="92.9" y1="193.9" x2="92.9" y2="252.8"/>
<polygon class="st1" points="89.5,250.5 92.9,263.2 96.3,250.5 "/>
<line class="st0" x1="92.9" y1="310" x2="92.9" y2="396.8"/>
<polygon class="st1" points="89.5,394.5 92.9,407.2 96.3,394.5 "/>
<line class="st0" x1="130.9" y1="305.9" x2="203.4" y2="450.5"/>
<polygon class="st1" points="199.3,449.9 208.1,459.8 205.4,446.8 "/>
<g id="shape11-2">
	<rect x="387.4" y="147.1" class="st2" width="88.9" height="46.8"/>
	<text transform="matrix(1 0 0 1 406.3995 173.815)" class="st3 st4 st5">VM/VMSS</text>
</g>
<g id="shape16-7">
	<rect x="45.3" y="407.2" class="st2" width="88.9" height="46.8"/>
	<text transform="matrix(1 0 0 1 64.2595 433.915)" class="st3 st4 st5">VM/VMSS</text>
</g>
<g id="shape17-11">
	<rect x="387.4" y="224.3" class="st2" width="88.9" height="46.8"/>
	<text transform="matrix(1 0 0 1 401.9895 250.985)" class="st3 st4 st5">Azu</text>
	<text transform="matrix(1 0 0 1 420.8995 250.985)" class="st3 st4 st5">r</text>
	<text transform="matrix(1 0 0 1 424.8795 250.985)" class="st3 st4 st5">e Ba</text>
	<text transform="matrix(1 0 0 1 446.1295 250.985)" class="st3 st4 st5">t</text>
	<text transform="matrix(1 0 0 1 450.0095 250.985)" class="st3 st4 st5">ch</text>
</g>
<g id="shape18-15">
	<rect x="387.4" y="378.9" class="st2" width="88.9" height="46.8"/>
	<text transform="matrix(1 0 0 1 391.8995 405.565)" class="st3 st4 st5">Azu</text>
	<text transform="matrix(1 0 0 1 410.8095 405.565)" class="st3 st4 st5">r</text>
	<text transform="matrix(1 0 0 1 414.7895 405.565)" class="st3 st4 st5">e Functions</text>
</g>
<g id="shape19-19">
	<rect x="387.4" y="455.2" class="st2" width="88.9" height="46.8"/>
	<g>
		<text transform="matrix(1 0 0 1 407.5195 475.235)" class="st3 st4 st5">Container</text>
		<text transform="matrix(1 0 0 1 408.7595 488.435)" class="st3 st4 st5">Instances</text>
	</g>
</g>
<g id="shape21-24">
	<rect x="387.4" y="301.3" class="st2" width="88.9" height="46.8"/>
	<g>
		<text transform="matrix(1 0 0 1 398.5795 321.335)" class="st3 st4 st5">App Se</text>
		<text transform="matrix(1 0 0 1 434.0795 321.335)" class="st3 st4 st5">r</text>
		<text transform="matrix(1 0 0 1 438.5895 321.335)" class="st3 st4 st5">vice /</text>
		<text transform="matrix(1 0 0 1 422.3495 334.535)" class="st3 st4 st5">ASE</text>
	</g>
</g>
<g id="shape39-100">
	<rect x="232.3" y="108.4" class="st6" width="64.2" height="20"/>
	<text transform="matrix(1 0 0 1 241.6395 121.415)" class="st7 st8 st9">Greenfield</text>
</g>
<g id="shape40-104">
	<rect x="65.1" y="108.4" class="st6" width="68.2" height="20"/>
	<text transform="matrix(1 0 0 1 75.6695 121.415)" class="st7 st8 st9">Brownfield</text>
</g>
<g id="shape41-108">
	<rect x="24.9" y="199.5" class="st6" width="68.2" height="20"/>
	<text transform="matrix(1 0 0 1 25 212.505)" class="st7 st8 st9">Lift-and-shift</text>
</g>
<g id="shape43-117">
	<rect x="300.8" y="149.5" class="st6" width="43.8" height="20"/>
	<text transform="matrix(1 0 0 1 315.2295 162.525)" class="st7 st8 st9">Y</text>
	<text transform="matrix(1 0 0 1 319.8795 162.525)" class="st7 st8 st9">es</text>
</g>
<g id="shape44-121">
	<rect x="302.1" y="225.9" class="st6" width="41.2" height="20"/>
	<text transform="matrix(1 0 0 1 315.2295 238.875)" class="st7 st8 st9">Y</text>
	<text transform="matrix(1 0 0 1 319.8795 238.875)" class="st7 st8 st9">es</text>
</g>
<g id="shape47-129">
	<rect x="253.3" y="351" class="st6" width="41.2" height="20"/>
	<text transform="matrix(1 0 0 1 266.3695 363.985)" class="st7 st8 st9">Y</text>
	<text transform="matrix(1 0 0 1 271.0195 363.985)" class="st7 st8 st9">es</text>
</g>
<g id="shape48-133">
	<rect x="250" y="504.9" class="st6" width="41.2" height="20"/>
	<text transform="matrix(1 0 0 1 263.0495 517.885)" class="st7 st8 st9">Y</text>
	<text transform="matrix(1 0 0 1 267.6995 517.885)" class="st7 st8 st9">es</text>
</g>
<g id="shape49-137">
	<rect x="305.7" y="540.5" class="st6" width="34.1" height="20"/>
	<text transform="matrix(1 0 0 1 315.2295 553.515)" class="st7 st8 st9">Y</text>
	<text transform="matrix(1 0 0 1 319.8795 553.515)" class="st7 st8 st9">es</text>
</g>
<g id="shape50-141">
	<rect x="251.2" y="273.9" class="st6" width="41.2" height="20"/>
	<text transform="matrix(1 0 0 1 265.1195 286.855)" class="st7 st8 st9">No</text>
</g>
<g id="shape51-145">
	<rect x="250" y="428" class="st6" width="41.2" height="20"/>
	<text transform="matrix(1 0 0 1 263.8795 440.935)" class="st7 st8 st9">No</text>
</g>
<g id="shape52-149">
	<rect x="302.1" y="461" class="st6" width="41.2" height="20"/>
	<text transform="matrix(1 0 0 1 316.0595 474.015)" class="st7 st8 st9">No</text>
</g>
<g id="shape53-153">
	<rect x="328.6" y="576.7" class="st6" width="41.2" height="20"/>
	<text transform="matrix(1 0 0 1 342.5595 589.665)" class="st7 st8 st9">No</text>
</g>
<g id="shape1-167">
	<path class="st10" d="M128.2,61.6h110c9.9,0,18,8.1,18,18v10.8c0,9.9-8.1,18-18,18h-110c-9.9,0-18-8.1-18-18V79.6
		C110.2,69.7,118.3,61.6,128.2,61.6z"/>
	<text transform="matrix(1 0 0 1 127.2395 88.015)" class="st8 st9">Greenfield or brownfield?</text>
</g>
<g id="shape2-172">
	<path class="st10" d="M221,224.3h65.8c9.9,0,18,8.1,18,18v10.8c0,9.9-8.1,18-18,18H221c-9.9,0-18-8.1-18-18v-10.8
		C203,232.4,211.1,224.3,221,224.3z"/>
	<text transform="matrix(1 0 0 1 220.4595 250.685)" class="st8 st9">HPC workload?</text>
</g>
<g id="shape3-176">
	<path class="st10" d="M221,301.3h65.8c9.9,0,18,8.1,18,18v10.8c0,9.9-8.1,18-18,18H221c-9.9,0-18-8.1-18-18v-10.8
		C203,309.3,211.1,301.3,221,301.3z"/>
	<g>
		<text transform="matrix(1 0 0 1 224.1095 321.635)" class="st8 st9">Microservices</text>
		<text transform="matrix(1 0 0 1 225.5495 333.635)" class="st8 st9">architecture?</text>
	</g>
</g>
<g id="shape4-181">
	<path class="st10" d="M221,378.2h65.8c9.9,0,18,8.1,18,18V407c0,9.9-8.1,18-18,18H221c-9.9,0-18-8.1-18-18v-10.8
		C203,386.3,211.1,378.2,221,378.2z"/>
	<g>
		<text transform="matrix(1 0 0 1 226.1196 392.585)" class="st8 st9">Event-driven</text>
		<text transform="matrix(1 0 0 1 208.1196 404.585)" class="st8 st9">workload with short-</text>
		<text transform="matrix(1 0 0 1 218.4195 416.585)" class="st8 st9">lived processes?</text>
	</g>
</g>
<g id="shape5-187">
	<path class="st10" d="M77,147.1h65.8c9.9,0,18,8.1,18,18v10.8c0,9.9-8.1,18-18,18H77c-9.9,0-18-8.1-18-18v-10.8
		C59,155.2,67.1,147.1,77,147.1z"/>
	<g>
		<text transform="matrix(1 0 0 1 75.6497 167.5151)" class="st8 st9">Lift-and-shift or</text>
		<text transform="matrix(1 0 0 1 72.3497 179.5151)" class="st8 st9">cloud optimized?</text>
	</g>
</g>
<g id="shape6-192">
	<path class="st10" d="M221,147.1h65.8c9.9,0,18,8.1,18,18v10.8c0,9.9-8.1,18-18,18H221c-9.9,0-18-8.1-18-18v-10.8
		C203,155.2,211.1,147.1,221,147.1z"/>
	<g>
		<text transform="matrix(1 0 0 1 212.6895 161.515)" class="st8 st9">Do you require full</text>
		<text transform="matrix(1 0 0 1 221.9695 173.515)" class="st8 st9">control and/or</text>
		<text transform="matrix(1 0 0 1 229.1395 185.515)" class="st8 st9">portability?</text>
	</g>
</g>
<g id="shape15-198">
	<path class="st10" d="M221,455.2h65.8c9.9,0,18,8.1,18,18V484c0,9.9-8.1,18-18,18H221c-9.9,0-18-8.1-18-18v-10.8
		C203,463.2,211.1,455.2,221,455.2z"/>
	<g>
		<text transform="matrix(1 0 0 1 212.8595 475.535)" class="st8 st9">Needs full-fledged</text>
		<text transform="matrix(1 0 0 1 222.4895 487.535)" class="st8 st9">orchestration?</text>
	</g>
</g>
<g id="shape55-203">
	<rect x="251.2" y="196.7" class="st6" width="41.2" height="20"/>
	<text transform="matrix(1 0 0 1 265.1195 209.715)" class="st7 st8 st9">No</text>
</g>
<g id="shape56-207">
	<rect x="302.1" y="307.2" class="st6" width="41.2" height="20"/>
	<text transform="matrix(1 0 0 1 316.0595 320.165)" class="st7 st8 st9">No</text>
</g>
<g id="shape1002-211">
	<path class="st11" d="M183.3,61.5l-12-12h6v-33h12v33h6L183.3,61.5z"/>
</g>
<g id="shape1003-213">
	<path class="st12" d="M167.2,0.4h32.2c9.9,0,18,8.1,18,18V22c0,9.9-8.1,18-18,18h-32.2c-9.9,0-18-8.1-18-18v-3.6
		C149.2,8.5,157.2,0.4,167.2,0.4z"/>
	<text transform="matrix(1 0 0 1 169.1495 23.215)" class="st8 st9">S</text>
	<text transform="matrix(1 0 0 1 174.4595 23.215)" class="st8 st9">T</text>
	<text transform="matrix(1 0 0 1 179.0195 23.215)" class="st8 st9">A</text>
	<text transform="matrix(1 0 0 1 185.4695 23.215)" class="st8 st9">R</text>
	<text transform="matrix(1 0 0 1 190.9995 23.215)" class="st8 st9">T</text>
</g>
<g id="shape1013-217">
	<path class="st13" d="M23.5,430.7C23.5,430.7,23.6,430.7,23.5,430.7l5.1-2.9c0.1,0,0.1-0.1,0.1-0.1c0-0.1,0-0.1-0.1-0.1l-5-2.9
		c0,0-0.1,0-0.2,0l-5,2.9l-0.1,0.1c0,0.1,0,0.1,0.1,0.1L23.5,430.7L23.5,430.7z M22.8,437.7L22.8,437.7c0.1,0,0.1-0.1,0.1-0.1v-5.8
		c0-0.1,0-0.1-0.1-0.1l-5-2.9h-0.1l-0.1,0.1v5.8c0,0.1,0,0.1,0.1,0.1L22.8,437.7L22.8,437.7z M24.2,437.7L24.2,437.7l5.1-2.9
		c0.1,0,0.1-0.1,0.1-0.1v-5.8c0-0.1,0-0.1-0.1-0.1h-0.1l-5,2.9c-0.1,0-0.1,0.1-0.1,0.1v5.8C24.1,437.6,24.1,437.7,24.2,437.7
		L24.2,437.7z M22.1,420.8L19,419h-0.1l-3.1,1.8h-5.5c-0.9,0-1.5,0.8-1.5,1.6v11.4H6.6v-16.4h24.2v3.5L22.1,420.8z M27.2,441.6h8.3
		c0.9,0,1.6-0.7,1.7-1.6v-17.6c-0.1-0.9-0.8-1.6-1.7-1.6h-2.6v-4c-0.1-0.9-0.8-1.6-1.7-1.6h-2.8v-4c-0.1-0.9-0.8-1.6-1.7-1.6H1.5
		c-0.9,0-1.6,0.8-1.5,1.6v17.6c0,0.9,0.7,1.6,1.5,1.6h2.9v4c0,0.9,0.7,1.6,1.6,1.6h2.7v4c0,0.9,0.7,1.6,1.5,1.6h9.2
		c0.9,3.3-0.3,3.8-5.8,3.8v1.8h18.6v-1.7C26.9,445.4,26.3,444.9,27.2,441.6z M35.3,439.4H11.1V423h24.2V439.4z M17.6,415.2l-3-1.8
		h-0.1l-3.1,1.8H6c-0.9,0-1.6,0.7-1.6,1.6v11.4H2.1v-16.4h24.2v3.5L17.6,415.2z"/>
</g>
<g id="shape1014-219">
	<path class="st13" d="M506.6,172.9L506.6,172.9l5.1-2.9l0.1-0.1c0-0.1,0-0.1-0.1-0.1l-5-2.9h-0.1l-5,2.9l-0.1,0.1
		c0,0.1,0,0.1,0.1,0.1L506.6,172.9C506.5,172.9,506.5,172.9,506.6,172.9z M505.8,179.9L505.8,179.9c0.1,0,0.1-0.1,0.1-0.1V174
		c0-0.1,0-0.1-0.1-0.1l-5-2.9c0,0-0.1,0-0.2,0l-0.1,0.1v5.8c0,0.1,0,0.1,0.1,0.1L505.8,179.9L505.8,179.9z M507.3,179.9L507.3,179.9
		l5.1-2.9c0.1,0,0.1-0.1,0.1-0.1v-5.8c0-0.1,0-0.1-0.1-0.1c0,0-0.1,0-0.2,0l-5,2.9l-0.1,0.1v5.8
		C507.1,179.8,507.1,179.9,507.3,179.9L507.3,179.9z M505.2,163l-3.1-1.8H502l-3,1.8h-5.5c-0.9,0-1.6,0.8-1.5,1.6V176h-2.1v-16.4h24
		v3.5L505.2,163z M510.3,183.8h8.3c0.9,0,1.6-0.7,1.7-1.6v-17.5c-0.1-0.9-0.8-1.6-1.7-1.6H516v-4c-0.1-0.9-0.8-1.6-1.7-1.6h-2.8v-4
		c-0.1-0.9-0.8-1.6-1.7-1.6h-25.2c-0.9,0-1.6,0.8-1.5,1.6v17.6c0,0.9,0.7,1.6,1.5,1.6h2.9v4c0,0.9,0.7,1.6,1.5,1.6h2.8v4
		c0,0.9,0.7,1.6,1.5,1.6h9.2c0.9,3.3-0.3,3.8-5.8,3.8v1.7h18.6v-1.7C509.9,187.6,509.3,187.1,510.3,183.8L510.3,183.8z M518.3,181.6
		h-24.2v-16.4h24.2V181.6z M500.7,157.4l-3-1.8h-0.1l-3,1.8h-5.4c-0.9,0-1.6,0.7-1.5,1.6v11.4h-2.3V154h24.2v3.4H500.7z"/>
</g>
<g id="group1015-221">
	<g id="shape1016-222">
		<path class="st14" d="M505,248.9c-0.1-0.7-0.6-1.2-1.3-1.3h-15.3c-0.5,0-0.9,0.8-0.9,1.3v15.3c0,0.4,0.3,0.8,0.8,0.9h0.1h15.5
			c0.5,0,1.2-0.5,1.2-0.9L505,248.9L505,248.9z"/>
	</g>
	<g id="shape1017-224">
		<path class="st14" d="M515.9,252.2c0-0.2-0.2-0.4-0.5-0.5h-7.8c-0.2,0-0.4,0.2-0.5,0.5v7.8c0,0.2,0.2,0.4,0.5,0.5h7.8
			c0.2,0,0.4-0.2,0.5-0.5V252.2z"/>
	</g>
	<g id="shape1018-226">
		<path class="st14" d="M512.9,246.3c0,0,0.8-6-4.7-7.1H507c-0.3,0-0.7,0.1-1,0.2v2.4c0,0,0.2-0.2,1.1-0.2c0.4,0,0.7,0,1.1,0.1
			c1.3,0.5,2.6,1.3,2.3,4.6h-2.3l3.7,4.6l3.6-4.6H512.9z"/>
	</g>
	<g id="shape1019-228">
		<path class="st14" d="M517.7,254h-0.8v7.6h-7.6v0.7c0,0.2,0.2,0.4,0.5,0.5h7.8c0.2,0,0.4-0.2,0.5-0.5v-7.8
			C518.1,254.3,518,254.1,517.7,254L517.7,254z"/>
	</g>
	<g id="shape1020-230">
		<path class="st14" d="M495.9,256.2h-0.7v7.6h-7.6v0.7c0,0.2,0.2,0.4,0.5,0.5h7.8c0.2,0,0.4-0.2,0.5-0.5v-7.8
			C496.3,256.4,496.1,256.2,495.9,256.2z"/>
	</g>
	<g id="group1021-232">
		<g id="group1022-233">
			<g id="shape1023-234">
				<rect x="490.7" y="238.8" class="st15" width="11" height="2.2"/>
			</g>
			<g id="shape1024-236">
				<rect x="490.7" y="242" class="st15" width="11" height="2.2"/>
			</g>
			<g id="shape1025-238">
				<rect x="490.7" y="245.3" class="st15" width="11" height="2.2"/>
			</g>
		</g>
		<g id="group1026-240">
			<g id="shape1027-241">
				<path class="st15" d="M505,248.9c-0.1-0.7-0.6-1.2-1.3-1.3h-15.3c-0.5,0-0.9,0.8-0.9,1.3v15.3c0,0.4,0.3,0.8,0.8,0.9h0.1h15.5
					c0.5,0,1.2-0.5,1.2-0.9L505,248.9L505,248.9z M502.7,262.9h-13.1v-11h13.1V262.9z"/>
			</g>
			<g id="shape1028-243">
				<path class="st15" d="M515.9,252.3c0-0.2-0.2-0.4-0.5-0.5h-7.8c-0.2,0-0.4,0.2-0.5,0.5v7.8c0,0.2,0.2,0.4,0.5,0.5h7.8
					c0.3,0,0.5-0.2,0.5-0.5V252.3z M514.8,259.6h-6.6v-5.5h6.6V259.6z"/>
			</g>
			<g id="shape1029-245">
				<rect x="509.3" y="255.1" class="st15" width="4.4" height="1.1"/>
			</g>
			<g id="shape1030-247">
				<path class="st15" d="M512.9,246.4c0,0,0.8-5.9-4.7-7.1H507c-0.3,0-0.7,0.1-1,0.2v2.4c0,0,0.2-0.2,1.1-0.2c0.4,0,0.7,0,1.1,0.1
					c1.3,0.5,2.6,1.3,2.3,4.6h-2.3l3.8,4.7l3.6-4.6L512.9,246.4z"/>
			</g>
			<g id="shape1031-249">
				<path class="st15" d="M517.7,254.1h-0.8v7.6h-7.6v0.7c0,0.2,0.2,0.4,0.5,0.5h7.8c0.2,0,0.4-0.2,0.5-0.5v-7.8
					C518.1,254.4,518,254.2,517.7,254.1L517.7,254.1z"/>
			</g>
			<g id="shape1032-251">
				<path class="st15" d="M519.8,256.2h-0.7v7.6h-7.7v0.7c0,0.2,0.2,0.4,0.5,0.5h7.8c0.2,0,0.4-0.2,0.5-0.5v-7.8
					C520.3,256.5,520.1,256.3,519.8,256.2C519.9,256.2,519.9,256.2,519.8,256.2z"/>
			</g>
		</g>
	</g>
</g>
<g id="group1033-254">
	<g id="group1034-255">
		<g id="shape1036-257">
			<path class="st16" d="M515.2,322.7v-12.8h-27.1v27.2h27.2L515.2,322.7L515.2,322.7z"/>
		</g>
	</g>
	<g id="group1037-259">
		<g id="shape1038-260">
			<path class="st13" d="M499,335.3h-9.1v-9h1.8c-0.2-0.6-0.3-1.2-0.3-1.8v-0.1H488v12.7h12.8v-7.5h-1.9L499,335.3z"/>
		</g>
		<g id="shape1039-262">
			<path class="st13" d="M511.7,326.2h1.7v9h-9.1v-5.7h-1.9v7.6h12.8v-12.7h-4C511.6,324.9,511.7,325.6,511.7,326.2L511.7,326.2z"/>
		</g>
		<g id="shape1040-264">
			<path class="st13" d="M489.9,320.9v-9h9.1v5.2c0.6-0.4,1.2-0.7,1.9-0.9V310h-12.8v12.8h3.7c0.2-0.7,0.6-1.3,1.2-1.9H489.9z"/>
		</g>
		<g id="shape1041-266">
			<path class="st13" d="M504.3,316.1v-4.2h9.1v9h-3.9c0.2,0.6,0.2,1.2,0.3,1.8v0.1h5.6V310h-12.9v5.9h0.5
				C503.3,315.9,503.8,316,504.3,316.1z"/>
		</g>
	</g>
	<g id="shape1042-268">
		<path class="st13" d="M510.2,326.1c0-1.1-0.9-2-2-2h-0.3c0.1-0.5,0.2-1,0.2-1.5c0-3-2.3-5.4-5.3-5.4c-2.4,0-4.5,1.5-5.2,3.7
			c-0.4-0.1-0.8-0.2-1.2-0.2c-2,0-3.6,1.6-3.6,3.6c0,0,0,0,0,0.1c0,2,1.6,3.7,3.6,3.7h11.9C509.5,328,510.3,327.1,510.2,326.1z"/>
	</g>
</g>
<path class="st13" d="M504.7,387H495l-5.2,14.7h6.4l-5,14.5l13.7-19.4h-6.7L504.7,387z M481.3,401.8l1.5,1.7l0,0l6.9,6.6
	c0.3,0.3,0.8,0.3,1.1,0c0.3-0.3,0.3-0.8,0-1.1l-7.2-7.3c-0.3-0.3-0.3-0.8,0-1.1l7-7c0.3-0.3,0.4-0.7,0.1-1.1l-0.1-0.1
	c-0.3-0.3-0.8-0.3-1.1,0l-6.8,6.6l-1.5,1.5C481,401,481,401.5,481.3,401.8z M512.6,401.8c0.3-0.3,0.3-0.8,0-1.1l-1.5-1.5l-6.9-6.6
	c-0.3-0.3-0.8-0.3-1.1,0c-0.3,0.3-0.4,0.7-0.1,1.1l0.1,0.1l7.2,7c0.3,0.3,0.3,0.8,0,1.1l-7.3,7.3c-0.3,0.3-0.3,0.8,0,1.1
	c0.3,0.3,0.8,0.3,1.1,0l6.8-6.7l0,0L512.6,401.8z"/>
<g id="shape1048-276">
	<path class="st10" d="M53.6,263.2h65.8c9.9,0,18,8.1,18,18V292c0,9.9-8.1,18-18,18H53.6c-9.9,0-18-8.1-18-18v-10.8
		C35.6,271.3,43.7,263.2,53.6,263.2z"/>
	<g>
		<text transform="matrix(1 0 0 1 71.1195 283.615)" class="st8 st9">Can be</text>
		<text transform="matrix(1 0 0 1 54.5395 295.615)" class="st8 st9">containerized?</text>
	</g>
</g>
<g id="shape1051-291">
	<rect x="132.2" y="308.2" class="st6" width="41.2" height="20"/>
	<text transform="matrix(1 0 0 1 145.2795 321.185)" class="st7 st8 st9">Y</text>
	<text transform="matrix(1 0 0 1 149.9295 321.185)" class="st7 st8 st9">es</text>
</g>
<g id="shape1052-295">
	<rect x="50.5" y="310" class="st6" width="41.2" height="20"/>
	<text transform="matrix(1 0 0 1 64.4495 323.015)" class="st7 st8 st9">No</text>
</g>
<g id="shape1053-299">
	<path class="st10" d="M219.2,533.2H285c9.9,0,18,8.1,18,18v36.9c0,9.9-8.1,18-18,18h-65.8c-9.9,0-18-8.1-18-18v-36.9
		C201.2,541.3,209.2,533.2,219.2,533.2z"/>
	<g>
		<text transform="matrix(1 0 0 1 226.7195 548.665)" class="st8 st9">Needs .NET</text>
		<text transform="matrix(1 0 0 1 221.8195 560.665)" class="st8 st9">integration or</text>
		<text transform="matrix(1 0 0 1 218.7395 572.665)" class="st8 st9">fully supported</text>
		<text transform="matrix(1 0 0 1 231.1095 584.665)" class="st8 st9">Microsoft</text>
		<text transform="matrix(1 0 0 1 212.6196 596.665)" class="st8 st9">technology stack?</text>
	</g>
</g>
<g id="group1056-307">
	<g id="shape22-308">
		<rect x="387.4" y="610.6" class="st2" width="88.9" height="46.8"/>
		<g>
			<text transform="matrix(1 0 0 1 391.5895 630.715)" class="st3 st4 st5">Azu</text>
			<text transform="matrix(1 0 0 1 410.4995 630.715)" class="st3 st4 st5">r</text>
			<text transform="matrix(1 0 0 1 414.4795 630.715)" class="st3 st4 st5">e Container</text>
			<text transform="matrix(1 0 0 1 398.9895 643.915)" class="st3 st4 st5">Se</text>
			<text transform="matrix(1 0 0 1 410.8195 643.915)" class="st3 st4 st5">r</text>
			<text transform="matrix(1 0 0 1 415.3295 643.915)" class="st3 st4 st5">vice (AKS)</text>
		</g>
	</g>
	<g id="shape1044-313">
		<path class="st13" d="M513.1,629.9v8.2l5-1.9v-4.4L513.1,629.9z M511.1,636.9l-0.3-0.1v-5.6l0.3-0.1l0.3-0.1l0.4-0.1v6.2l-0.4-0.1
			L511.1,636.9z M509.9,636.6l-0.3-0.1v-5l0.8-0.2v5.4l-0.3-0.1L509.9,636.6z M508.9,636.2l-0.2-0.1v-4.4l0.6-0.2v4.8L508.9,636.2z
			 M508.5,631.2v5.3l3.8,1.5v-8.1L508.5,631.2z M507,621.8v8.2l5.1-2v-4.4L507,621.8z M507,638v8.2l5.1-2v-4.4L507,638z M505,628.8
			l-0.3-0.1v-5.6l0.3-0.1l0.3-0.1l0.4-0.1v6.3l-0.4-0.1L505,628.8z M503.8,628.4l-0.3-0.1v-5l0.8-0.2v5.4l-0.3-0.1L503.8,628.4z
			 M502.8,628.1l-0.2-0.1v-4.4l0.6-0.2v4.8L502.8,628.1z M502.4,623.1v5.3l3.8,1.5v-8L502.4,623.1z M505,645.1l-0.3-0.1v-5.6
			l0.3-0.1l0.3-0.1l0.4-0.1v6.3l-0.4-0.1L505,645.1z M503.8,644.7l-0.3-0.1v-4.9l0.8-0.2v5.4l-0.3-0.1L503.8,644.7z M502.8,644.4
			l-0.2-0.1v-4.4l0.6-0.2v4.8L502.8,644.4z M502.4,639.5v5.3l3.8,1.5v-8.2L502.4,639.5z M501.5,630v8.1l5-1.9v-4.4L501.5,630z
			 M499.4,637l-0.3-0.1v-5.7l0.3-0.1l0.3-0.1l0.4-0.1v6.2l-0.4-0.1L499.4,637z M498.3,636.6l-0.3-0.1v-5l0.8-0.2v5.4l-0.3-0.1
			L498.3,636.6z M497.3,636.3l-0.2-0.1v-4.4l0.6-0.2v4.8L497.3,636.3z M496.9,631.3v5.3l3.8,1.5V630L496.9,631.3z M495.2,621.8v8.2
			l5.1-2v-4.4L495.2,621.8z M495.2,638.1v8.2l5.1-2v-4.4L495.2,638.1z M493.2,628.8l-0.3-0.1v-5.6l0.3-0.1l0.3-0.1l0.4-0.1v6.3
			l-0.4-0.1L493.2,628.8z M492,628.4l-0.3-0.1v-5l0.8-0.2v5.4l-0.3-0.1L492,628.4z M491,628.2l-0.2-0.1v-4.4l0.6-0.2v4.8L491,628.2z
			 M490.6,623.2v5.3l3.8,1.5v-8.1L490.6,623.2z M493.2,645.1l-0.3-0.1v-5.6l0.3-0.1l0.3-0.1l0.4-0.1v6.3l-0.4-0.1L493.2,645.1z
			 M492,644.7l-0.3-0.1v-4.9l0.8-0.2v5.4l-0.3-0.1L492,644.7z M491,644.4l-0.2-0.1v-4.4l0.6-0.2v4.8L491,644.4z M490.6,639.5v5.3
			l3.8,1.5v-8.2L490.6,639.5z M489.8,630v8.1l5-1.9v-4.4L489.8,630z M487.7,637l-0.3-0.1v-5.7l0.3-0.1l0.3-0.1l0.4-0.1v6.2L488,637
			L487.7,637z M486.5,636.6l-0.3-0.1v-5l0.8-0.2v5.4l-0.3-0.1L486.5,636.6z M485.5,636.3l-0.2-0.1v-4.4l0.6-0.2v4.8L485.5,636.3z
			 M485.1,631.3v5.3l3.8,1.5V630L485.1,631.3z"/>
	</g>
</g>
<g id="group1057-315">
	<g id="shape20-316">
		<rect x="387.4" y="536.8" class="st2" width="88.9" height="46.8"/>
		<text transform="matrix(1 0 0 1 397.6795 563.515)" class="st3 st4 st5">Se</text>
		<text transform="matrix(1 0 0 1 409.5095 563.515)" class="st3 st4 st5">r</text>
		<text transform="matrix(1 0 0 1 414.0195 563.515)" class="st3 st4 st5">vice </text>
		<text transform="matrix(1 0 0 1 436.5195 563.515)" class="st3 st4 st5">F</text>
		<text transform="matrix(1 0 0 1 441.6695 563.515)" class="st3 st4 st5">abric</text>
	</g>
	<g id="group1045-320">
		<g id="shape1046-321">
			<path class="st16" d="M493.4,555.7c-0.1-0.2-0.1-0.4-0.2-0.5l3-2.5c0.2,0.2,0.4,0.4,0.7,0.5L493.4,555.7z M501.7,571.5
				c1,2.4,3.7,3.5,6.1,2.6c2.4-1,3.5-3.7,2.6-6.1c-0.3-0.7-0.8-1.4-1.4-1.8l1.3-4.4c2.5-0.4,4.3-2.8,3.9-5.4
				c-0.4-2.5-2.8-4.3-5.4-3.9c-0.6,0.1-1.3,0.3-1.8,0.7l-3.2-2.7c0.1-0.4,0.2-0.9,0.2-1.4c0.1-2.6-1.9-4.8-4.5-4.9
				c-2.6-0.1-4.8,1.9-4.9,4.5c0,0.1,0,0.3,0,0.4c0,0.5,0.1,0.9,0.2,1.4l-3.5,2.9c-0.7-0.3-1.5-0.5-2.3-0.5c-2.6,0-4.7,1.6-4.7,4.2
				c0,2.3,1.6,4.2,3.9,4.6l1.3,4.5c-1.9,1.7-2.1,4.6-0.4,6.6s4.6,2.1,6.6,0.4c0.6-0.5,1-1.1,1.3-1.8h4.7V571.5z M502,553
				c0.1-0.1,0.2-0.2,0.3-0.3l3,2.5l-0.1,0.2L502,553z"/>
		</g>
		<g id="shape1047-323">
			<path class="st13" d="M514.2,557.1c0-2.6-2.1-4.7-4.7-4.7c-0.9,0-1.8,0.3-2.6,0.8l-3.2-2.7c0.1-0.4,0.2-0.9,0.2-1.4
				c0.1-2.6-1.9-4.8-4.5-4.9c-2.6-0.1-4.8,1.9-4.9,4.5c0,0.1,0,0.3,0,0.4c0,0.5,0.1,0.9,0.2,1.4l-3.5,2.9c-0.7-0.3-1.5-0.5-2.3-0.5
				c-2.6,0-4.7,1.6-4.7,4.2c0,2.3,1.6,4.2,3.9,4.6l1.3,4.5c-1.9,1.7-2.1,4.6-0.4,6.6c1.7,1.9,4.6,2.1,6.6,0.4c0.6-0.5,1-1.2,1.3-1.9
				h4.8c0.9,2.4,3.6,3.6,6,2.7s3.6-3.6,2.7-6c-0.3-0.8-0.8-1.5-1.4-2l1.3-4.4C512.5,561.4,514.2,559.4,514.2,557.1z M506,565.1
				c-2.2,0-4.1,1.6-4.6,3.7H497c-0.5-2.2-2.4-3.7-4.6-3.7c-0.2,0-0.5,0-0.7,0.1l-1-3.7c1.8-0.7,2.9-2.4,2.9-4.3
				c0-0.7-0.1-1.3-0.5-1.9l3-2.5c1.7,1.5,4.4,1.5,6.1,0l3,2.5c-1.1,2.4,0,5.1,2.3,6.2c0,0,0,0,0.1,0l-1.1,3.7
				C506.4,565.1,506.2,565.1,506,565.1z"/>
		</g>
	</g>
</g>
<line class="st0" x1="256.3" y1="271" x2="256.3" y2="290.8"/>
<polygon class="st1" points="252.8,288.4 256.3,301.2 259.7,288.4 "/>
<line class="st0" x1="256.3" y1="348" x2="256.3" y2="367.8"/>
<polygon class="st1" points="252.8,365.5 256.3,378.3 259.7,365.5 "/>
<line class="st0" x1="256.3" y1="425.5" x2="256.3" y2="445.3"/>
<polygon class="st1" points="252.8,443 256.3,455.8 259.7,443 "/>
<line class="st0" x1="256.3" y1="501.9" x2="256.3" y2="521.7"/>
<polygon class="st1" points="252.8,519.4 256.3,532.2 259.7,519.4 "/>
<g id="shape44-121-2">
	<rect x="302.1" y="382.2" class="st6" width="41.2" height="20"/>
	<text transform="matrix(1 0 0 1 315.2295 395.225)" class="st7 st8 st9">Y</text>
	<text transform="matrix(1 0 0 1 319.8795 395.225)" class="st7 st8 st9">es</text>
</g>
<g id="shape41-108_1_">
	<rect x="110.4" y="207.2" class="st6" width="68.2" height="20"/>
	<text transform="matrix(1 0 0 1 131.4745 204.6901)" class="st7 st8 st9">Cloud</text>
	<text transform="matrix(1 0 0 1 122.3745 216.6901)" class="st7 st8 st9">optimized</text>
</g>
<g>
	<g>
		<path class="st17" d="M516.9,496.2c-11.6,0-23.2,0-34.9,0c0-11.6,0-23.2,0-34.9c11.6,0,23.2,0,34.9,0
			C516.9,472.9,516.9,484.5,516.9,496.2z M493.4,490.6c0.1,0,0.3,0.1,0.4,0.1c3.8,0,7.5,0,11.3,0c0.6,0,0.8-0.4,0.8-0.9
			c0-2.4,0-4.9,0-7.3c0-1.3,0-2.7,0-4c0-1.2-0.1-1.3-1.3-1.3c-3.6,0-7.1,0-10.7,0c-0.6,0-0.8,0.2-0.8,0.8c0,4,0,7.9,0,11.9
			C493.1,490.1,493.3,490.3,493.4,490.6z M506.6,482c0.2,0,0.4,0,0.5,0c2.5-0.4,4-2.2,4.3-4.4c0.3-2.1-1.1-4.4-3.1-5.2
			c-0.6-0.2-0.7-0.5-0.8-1.1c-0.7-3.6-4.6-5.4-7.3-4.4c-1.2,0.5-2.2,1.1-3,2.1c-1.8-1.1-3.5-1.3-5.3-0.1c-1.7,1.1-2.3,2.9-2,4.8
			c-2.3,1.5-3,3.5-2.1,5.6c0.8,1.8,2.7,2.9,4.4,2.5c0-1.3,0-2.7,0-4c0-1.2,0.3-1.5,1.5-1.5c1.5,0,3.1,0,4.6,0c0-0.9,0-1.7,0-2.5
			c-0.4,0-0.8,0-1.4-0.1c0.9-1.2,1.6-2.2,2.4-3.4c0.8,1.2,1.6,2.2,2.4,3.4c-0.6,0-0.9,0.1-1.4,0.1c0,0.8,0,1.6,0,2.5
			c1.6,0,3.1,0,4.7,0c1.1,0,1.4,0.3,1.4,1.4C506.6,479.2,506.6,480.6,506.6,482z"/>
		<path class="st18" d="M506.6,482c0-1.4,0-2.8,0-4.2c0-1-0.3-1.4-1.4-1.4c-1.5,0-3.1,0-4.7,0c0-0.8,0-1.6,0-2.5
			c0.4,0,0.8-0.1,1.4-0.1c-0.8-1.1-1.6-2.2-2.4-3.4c-0.8,1.1-1.6,2.2-2.4,3.4c0.5,0,0.9,0.1,1.4,0.1c0,0.8,0,1.6,0,2.5
			c-1.5,0-3.1,0-4.6,0c-1.2,0-1.5,0.3-1.5,1.5c0,1.3,0,2.7,0,4c-1.7,0.4-3.7-0.7-4.4-2.5c-0.9-2.2-0.2-4.1,2.1-5.6
			c-0.3-2,0.2-3.7,2-4.8c1.7-1.1,3.5-1,5.3,0.1c0.8-1,1.8-1.6,3-2.1c2.6-1,6.6,0.8,7.3,4.4c0.1,0.6,0.3,0.8,0.8,1.1
			c2.1,0.8,3.5,3.1,3.1,5.2c-0.3,2.2-1.8,4-4.3,4.4C506.9,482.1,506.8,482,506.6,482z"/>
		<path class="st19" d="M493.4,490.6c-0.1-0.2-0.3-0.5-0.3-0.7c0-4,0-7.9,0-11.9c0-0.6,0.2-0.8,0.8-0.8c3.6,0,7.1,0,10.7,0
			c1.2,0,1.3,0.1,1.3,1.3c0,1.3,0,2.7,0,4c-0.2-0.4-0.5-0.8-0.6-1.2c-0.1-0.5-0.1-1-0.2-1.6c-0.1-0.5-0.3-0.8-0.9-0.7
			c-0.2-0.1-0.4-0.3-0.6-0.3c-2.9,0-5.9,0-8.8,0c0,0,0,0.1-0.1,0.1c0,0.1,0,0.2,0,0.3c0,0.6,0,1.2,0,1.8c0,2.7,0,5.4,0,8
			c-0.2,0.2-0.3,0.4-0.5,0.6C493.9,489.9,493.6,490.2,493.4,490.6z"/>
		<path class="st20" d="M504.2,479c0.5-0.1,0.8,0.2,0.9,0.7c0.1,0.5,0,1.1,0.2,1.6c0.1,0.4,0.4,0.8,0.6,1.2c0,2.4,0,4.9,0,7.3
			c0,0.5-0.1,0.9-0.8,0.9c-3.8,0-7.5,0-11.3,0c-0.1,0-0.3-0.1-0.4-0.1c0.3-0.3,0.6-0.7,0.8-1c0.2-0.2,0.3-0.4,0.5-0.6
			c0.2,0.1,0.4,0.1,0.6,0.1c2.8,0,5.5,0,8.3,0c0.2,0,0.3,0,0.5-0.1c0-0.4,0-0.7,0-1C504.2,485.1,504.2,482.1,504.2,479z"/>
		<path class="st21" d="M504.2,479c0,3,0,6.1,0,9.1c0,0.3,0,0.7,0,1c-0.2,0-0.4,0.1-0.5,0.1c-2.8,0-5.5,0-8.3,0
			c-0.2,0-0.4-0.1-0.6-0.1c0-2.7,0-5.4,0-8c0-0.6,0-1.2,0-1.8c0-0.1,0-0.2,0-0.3c0,0,0-0.1,0.1-0.1c2.9,0,5.9,0,8.8,0
			C503.8,478.7,504,478.9,504.2,479z M498.5,488.2c0.7,0,1.3,0,1.9,0c0-2.9,0-5.7,0-8.5c-0.6,0-1.2,0-1.9,0
			C498.5,482.5,498.5,485.4,498.5,488.2z M497.6,479.7c-0.7,0-1.3,0-1.9,0c0,2.9,0,5.7,0,8.6c0.4,0,0.8,0,1.1,0
			c0.7,0.1,0.8-0.2,0.8-0.9c0-2,0-4.1,0-6.1C497.6,480.8,497.6,480.2,497.6,479.7z M501.3,479.7c0,0.3,0,0.6,0,0.9c0,2,0,4,0,6.1
			c0,1.7,0,1.7,1.7,1.7c0,0,0.1,0,0.2-0.1c0-2.8,0-5.6,0-8.5C502.6,479.7,502,479.7,501.3,479.7z"/>
		<path class="st20" d="M494.7,479.2c0,0.6,0,1.2,0,1.8C494.7,480.4,494.7,479.8,494.7,479.2z"/>
		<path class="st20" d="M494.7,478.7c0,0,0,0.1-0.1,0.1C494.7,478.8,494.7,478.8,494.7,478.7z"/>
		<path class="st22" d="M498.5,488.2c0-2.8,0-5.7,0-8.5c0.6,0,1.2,0,1.9,0c0,2.8,0,5.7,0,8.5C499.8,488.2,499.2,488.2,498.5,488.2z"
			/>
		<path class="st23" d="M497.6,479.7c0,0.6,0,1.1,0,1.6c0,2,0,4.1,0,6.1c0,0.6-0.1,1-0.8,0.9c-0.3,0-0.7,0-1.1,0c0-2.9,0-5.7,0-8.6
			C496.3,479.7,496.9,479.7,497.6,479.7z"/>
		<path class="st24" d="M501.3,479.7c0.7,0,1.3,0,1.9,0c0,2.9,0,5.7,0,8.5c-0.1,0-0.1,0.1-0.2,0.1c-1.7,0.1-1.7,0.1-1.7-1.7
			c0-2,0-4,0-6.1C501.3,480.3,501.3,480,501.3,479.7z"/>
	</g>
</g>
</svg>
